<mxfile host="app.diagrams.net" modified="2023-07-10T11:48:46.306Z" agent="Mozilla/5.0 (Windows NT 10.0; Win64; x64; rv:109.0) Gecko/20100101 Firefox/115.0" version="21.2.8" etag="47849CFkQXTrpvu2eKt6" type="github">
  <diagram name="Page-1" id="06tbPVwSqotmteYgba5W">
    <mxGraphModel>
      <root>
        <mxCell id="0" />
        <mxCell id="1" parent="0" />
      </root>
    </mxGraphModel>
  </diagram>
</mxfile>
